<?xml version="1.0" encoding="utf-8" ?>
<svg xmlns="http://www.w3.org/2000/svg" xmlns:xlink="http://www.w3.org/1999/xlink" width="300" height="349">
	<path fill="white" d="M0 0L300 0L300 348.562C299.733 348.732 299.443 348.876 299.128 348.93C297.04 349.29 294.386 348.998 292.242 348.999L276.412 349.002L217.697 349.001L3.39835 348.999C2.31291 348.998 0.943993 349.162 0 348.562L0 0Z"/>
	<path d="M186.311 52.0701C190.716 51.8095 195.199 51.9566 199.613 51.9462C202.836 51.9387 206.263 51.7025 209.462 52.0397C211.968 52.304 213.473 53.5153 215.042 55.4346C216.232 56.8915 216.174 59.6683 216.228 61.5242C216.702 77.7662 216.304 94.076 216.308 110.324L216.434 197.068L216.424 254.269C216.358 261.942 216.904 270.413 216.127 277.939C210.703 278.698 204.88 278.236 199.4 278.242C193.099 278.249 186.358 278.715 180.11 277.933C179.812 271.468 179.995 264.93 179.997 258.456L180.001 225.234L180.005 136.945C180.005 120.265 180.235 103.557 179.883 86.8834C177.831 93.9409 174.441 100.809 171.781 107.665L156.466 147.701C152.982 157.66 148.828 167.465 145.015 177.305L126.735 225.298L113.627 260.16C111.693 265.207 109.961 270.659 107.612 275.515C107.412 275.928 107.106 276.344 106.654 276.485C104.655 277.108 76.174 265.431 72.657 263.528Q72.8088 262.98 72.9875 262.441C73.8192 259.956 74.9157 257.516 75.8541 255.066L82.1357 238.592L108.817 169.802L135.062 101.855L143.015 81.36C144.983 76.2324 146.86 70.9779 149.147 65.9848C149.98 64.1652 150.967 62.4846 152.83 61.5862C154.409 60.8248 156.214 60.6664 157.933 60.917C161.517 61.4394 165.136 63.3423 168.481 64.6835Q174.174 66.995 179.979 69.0096C179.954 64.8316 179.145 58.8512 181.449 55.2331C182.607 53.4152 184.254 52.5306 186.311 52.0701Z"/>
	<path fill="white" d="M97.0021 212.829Q109.786 217.698 122.267 223.298C120.239 229.387 117.613 235.266 115.524 241.334C106.866 238.456 98.4332 234.568 90.0315 231.014C92.2538 224.92 94.7484 218.917 97.0021 212.829Z"/>
	<path d="M103.155 223.058C104.003 222.972 104.955 222.936 105.792 223.098C107.673 223.462 109.663 224.297 110.759 225.941C111.571 227.159 111.977 228.756 111.638 230.199C111.397 231.224 110.745 232.3 109.802 232.813C109.203 233.138 108.735 233.08 108.107 232.889C107.507 232.459 107.314 232.13 107.066 231.461C107.04 231.393 107.017 231.324 106.993 231.256C106.952 230.269 107.032 229.029 106.389 228.207C104.598 225.913 100.997 229.565 98.8126 229.111C98.3435 229.013 98.2581 228.731 98.0145 228.366C97.9088 227.586 97.8145 226.788 98.2046 226.062C99.0814 224.431 101.483 223.509 103.155 223.058Z"/>
	<path fill="white" d="M184.548 224.041C193.625 224.443 202.893 224.029 211.989 224.081L211.999 243.966L184.749 243.983Q184.463 234.014 184.548 224.041Z"/>
	<path d="M195.834 231.083C198.371 230.836 200.722 230.663 202.892 232.28C203.959 233.076 204.859 234.273 205.001 235.631C205.07 236.297 204.974 237.053 204.493 237.555C204.041 238.027 203.454 238.268 202.788 238.215C201.291 238.096 200.457 236.933 199.534 235.903C199.082 235.45 198.786 235.119 198.154 234.963C196.899 235.358 196.344 237.088 195.412 237.949C194.98 238.347 194.534 238.538 193.942 238.461C193.317 238.379 192.426 237.67 192.081 237.136C191.791 236.688 191.721 236.198 191.822 235.68C192.213 233.681 194.239 232.122 195.834 231.083Z"/>
	<path fill="white" d="M184.622 248.061C193.617 248.647 202.972 248.271 211.983 248.084L212.006 273.904C209.154 274.268 205.953 273.995 203.058 273.994L184.734 273.967C184.777 265.344 184.416 256.672 184.622 248.061Z"/>
	<path fill="white" d="M88.2537 235.292C96.6275 239.221 105.42 242.333 113.864 246.139C110.453 254.406 107.309 262.886 104.292 271.305C95.846 267.98 87.3886 264.23 78.7439 261.474C80.5928 255.529 82.9244 249.707 85.1394 243.89C86.2163 241.061 87.4815 238.216 88.2537 235.292Z"/>
	<path fill="white" d="M155.518 64.9158C155.945 64.925 156.361 64.9477 156.781 65.0217C159.908 65.5721 174.652 71.5759 177.302 73.4094C178.091 73.9554 178.638 74.7508 179.182 75.5265C176.849 84.2254 172.688 92.7491 169.362 101.136L152.427 145.069L132.218 197.502C129.629 204.102 127.395 210.932 124.603 217.441C124.359 218.01 124.186 218.443 123.61 218.704L123.153 218.394C119.335 216.674 115.342 215.307 111.464 213.724C107.164 211.97 102.944 210.017 98.6175 208.332C103.409 197.605 107.345 186.403 111.632 175.463L140.149 101.701L149.408 77.9698C150.82 74.3962 152.01 70.591 153.712 67.1515C154.157 66.2522 154.793 65.5969 155.518 64.9158Z"/>
	<path fill="white" d="M187.939 56.042C191.919 55.8958 195.931 55.9741 199.915 55.9609C202.609 55.952 205.732 55.66 208.378 56.1668C209.495 56.3809 210.369 56.7329 211.209 57.5066C211.802 59.0729 211.888 60.9657 211.954 62.6343C212.191 68.6724 212.001 74.7806 212.001 80.8262L212.003 115.268L212.006 219.983L208.375 219.99L184.643 219.979C184.318 210.459 184.68 200.801 184.747 191.265L184.705 150.213L184.513 95.7561C184.434 84.8989 184.07 74.0631 184.295 63.1991C184.33 61.5329 184.183 58.8159 185.171 57.4173C185.841 56.4701 186.883 56.2699 187.939 56.042Z"/>
</svg>
